<?xml version="1.0" standalone="no"?>
<!DOCTYPE svg PUBLIC "-//W3C//DTD SVG 20010904//EN"
 "http://www.w3.org/TR/2001/REC-SVG-20010904/DTD/svg10.dtd">
<svg version="1.0" xmlns="http://www.w3.org/2000/svg"
 width="53.000000pt" height="54.000000pt" viewBox="0 0 53.000000 54.000000"
 preserveAspectRatio="xMidYMid meet">
<metadata>
Created by potrace 1.16, written by Peter Selinger 2001-2019
</metadata>
<g transform="translate(0.000000,54.000000) scale(0.100000,-0.100000)"
fill="#000000" stroke="none">
<path d="M230 525 c-7 -9 -10 -27 -7 -44 5 -25 1 -32 -32 -54 -67 -45 -92
-138 -51 -190 20 -25 20 -28 4 -58 -21 -42 -7 -77 37 -86 48 -9 14 -23 -61
-23 -70 0 -113 -16 -118 -41 -4 -24 11 -26 140 -18 65 4 171 4 235 0 69 -4
126 -4 137 2 18 9 18 10 -3 30 -17 17 -36 22 -93 25 -95 4 -112 11 -68 25 27
10 36 18 38 40 2 16 -3 39 -12 51 -13 21 -13 25 5 43 29 28 34 90 12 133 -10
19 -37 49 -61 67 -23 17 -38 35 -32 38 14 9 13 48 -2 63 -17 17 -53 15 -68 -3z
m91 -109 c58 -39 83 -110 58 -159 -18 -34 -28 -37 -115 -37 -102 0 -129 16
-129 79 0 46 24 84 75 119 42 28 67 28 111 -2z"/>
</g>
</svg>
