<?xml version="1.0" standalone="no"?>
<!DOCTYPE svg PUBLIC "-//W3C//DTD SVG 20010904//EN"
 "http://www.w3.org/TR/2001/REC-SVG-20010904/DTD/svg10.dtd">
<svg version="1.0" xmlns="http://www.w3.org/2000/svg"
 width="824.000000pt" height="657.000000pt" viewBox="0 0 824.000000 657.000000"
 preserveAspectRatio="xMidYMid meet">
<metadata>
Created by potrace 1.16, written by Peter Selinger 2001-2019
</metadata>
<g transform="translate(0.000000,657.000000) scale(0.100000,-0.100000)"
fill="#000000" stroke="none">
<path d="M62 3283 l3 -3208 4048 -3 4047 -2 0 3210 0 3210 -4050 0 -4050 0 2
-3207z m1026 2795 l3 -388 -501 0 -500 0 0 390 0 390 498 -2 497 -3 3 -387z
m2012 2 l0 -390 -500 0 -500 0 0 368 c0 202 3 377 6 390 l6 22 494 0 494 0 0
-390z m2000 0 l0 -390 -500 0 -500 0 0 368 c0 202 3 377 6 390 l6 22 494 0
494 0 0 -390z m2028 -2 l3 -388 -501 0 -500 0 0 390 0 390 498 -2 497 -3 3
-387z m-5048 -798 l0 -390 -490 0 -491 0 1 369 c1 203 4 379 7 390 5 21 7 21
489 21 l484 0 0 -390z m2000 0 l0 -390 -480 0 -480 0 0 390 0 390 480 0 480 0
0 -390z m2030 0 l0 -390 -495 0 -495 0 0 390 0 390 495 0 495 0 0 -390z m2030
0 l0 -390 -495 0 -495 0 0 390 0 390 495 0 495 0 0 -390z m-7052 -802 l3 -388
-501 0 -500 0 0 390 0 390 498 -2 497 -3 3 -387z m2012 2 l0 -390 -500 0 -500
0 0 368 c0 202 3 377 6 390 l6 22 494 0 494 0 0 -390z m2000 0 l0 -390 -500 0
-500 0 0 368 c0 202 3 377 6 390 l6 22 494 0 494 0 0 -390z m2028 -2 l3 -388
-501 0 -500 0 0 390 0 390 498 -2 497 -3 3 -387z m-5048 -798 l0 -390 -490 0
-491 0 1 369 c1 203 4 379 7 390 5 21 7 21 489 21 l484 0 0 -390z m2000 0 l0
-390 -480 0 -480 0 0 390 0 390 480 0 480 0 0 -390z m2030 0 l0 -390 -495 0
-495 0 0 390 0 390 495 0 495 0 0 -390z m2030 0 l0 -390 -495 0 -495 0 0 390
0 390 495 0 495 0 0 -390z m-7052 -802 l3 -388 -501 0 -500 0 0 390 0 390 498
-2 497 -3 3 -387z m2012 2 l0 -390 -500 0 -500 0 0 368 c0 202 3 377 6 390 l6
22 494 0 494 0 0 -390z m2000 0 l0 -390 -500 0 -500 0 0 368 c0 202 3 377 6
390 l6 22 494 0 494 0 0 -390z m2028 -2 l3 -388 -501 0 -500 0 0 390 0 390
498 -2 497 -3 3 -387z m-5048 -798 l0 -390 -490 0 -491 0 1 369 c1 203 4 379
7 390 5 21 7 21 489 21 l484 0 0 -390z m2000 0 l0 -390 -480 0 -480 0 0 390 0
390 480 0 480 0 0 -390z m2030 0 l0 -390 -495 0 -495 0 0 390 0 390 495 0 495
0 0 -390z m2030 0 l0 -390 -495 0 -495 0 0 390 0 390 495 0 495 0 0 -390z
m-7052 -802 l3 -388 -501 0 -500 0 0 390 0 390 498 -2 497 -3 3 -387z m2012 2
l0 -390 -500 0 -500 0 0 368 c0 202 3 377 6 390 l6 22 494 0 494 0 0 -390z
m2000 0 l0 -390 -500 0 -500 0 0 368 c0 202 3 377 6 390 l6 22 494 0 494 0 0
-390z m2028 -2 l3 -388 -501 0 -500 0 0 390 0 390 498 -2 497 -3 3 -387z
m-5048 -798 l0 -390 -490 0 -491 0 1 369 c1 203 4 379 7 390 5 21 7 21 489 21
l484 0 0 -390z m2000 0 l0 -390 -480 0 -480 0 0 390 0 390 480 0 480 0 0 -390z
m2030 0 l0 -390 -495 0 -495 0 0 390 0 390 495 0 495 0 0 -390z m2030 0 l0
-390 -495 0 -495 0 0 390 0 390 495 0 495 0 0 -390z"/>
</g>
</svg>
