<?xml version="1.0" standalone="no"?>
<!DOCTYPE svg PUBLIC "-//W3C//DTD SVG 20010904//EN"
 "http://www.w3.org/TR/2001/REC-SVG-20010904/DTD/svg10.dtd">
<svg version="1.0" xmlns="http://www.w3.org/2000/svg"
 width="51.000000pt" height="52.000000pt" viewBox="0 0 51.000000 52.000000"
 preserveAspectRatio="xMidYMid meet">
<metadata>
Created by potrace 1.16, written by Peter Selinger 2001-2019
</metadata>
<g transform="translate(0.000000,52.000000) scale(0.100000,-0.100000)"
fill="#000000" stroke="none">
<path d="M212 495 c-24 -30 -38 -32 -52 -5 -6 11 -20 20 -32 20 -18 0 -20 -4
-14 -31 5 -25 -3 -45 -40 -107 -57 -93 -74 -132 -74 -171 0 -38 19 -57 66 -66
33 -6 41 -3 73 27 59 56 131 110 127 96 -2 -7 -7 -26 -11 -41 -3 -16 -23 -47
-44 -70 -55 -61 -71 -88 -71 -119 l0 -28 185 0 185 0 0 83 c0 91 -20 198 -45
249 -35 67 -98 117 -172 132 -22 5 -33 14 -35 28 -4 31 -23 32 -46 3z m37 -19
c7 -17 20 -25 49 -29 47 -8 112 -53 140 -99 29 -47 50 -134 58 -239 l7 -89
-176 0 -177 0 11 27 c6 15 31 52 56 83 54 65 58 76 67 160 l7 65 -21 -40 c-11
-22 -44 -58 -72 -80 -28 -22 -64 -53 -80 -70 -29 -29 -29 -30 -26 -6 2 13 -3
26 -9 28 -7 3 -13 -2 -13 -11 0 -26 -39 -19 -52 10 -10 22 -7 34 21 92 18 37
47 87 63 112 18 26 30 57 30 73 -1 27 0 28 17 13 24 -22 58 -20 71 4 14 26 19
25 29 -4z"/>
</g>
</svg>
