<?xml version="1.0" standalone="no"?>
<!DOCTYPE svg PUBLIC "-//W3C//DTD SVG 20010904//EN"
 "http://www.w3.org/TR/2001/REC-SVG-20010904/DTD/svg10.dtd">
<svg version="1.0" xmlns="http://www.w3.org/2000/svg"
 width="38.000000pt" height="50.000000pt" viewBox="0 0 38.000000 50.000000"
 preserveAspectRatio="xMidYMid meet">
<metadata>
Created by potrace 1.16, written by Peter Selinger 2001-2019
</metadata>
<g transform="translate(0.000000,50.000000) scale(0.100000,-0.100000)"
fill="#000000" stroke="none">
<path d="M163 488 c-24 -12 -49 -61 -38 -77 3 -6 -3 -23 -14 -37 -28 -36 -34
-76 -17 -117 14 -34 13 -36 -9 -51 -29 -19 -72 -108 -78 -163 l-5 -43 190 0
191 0 -6 49 c-7 59 -28 104 -69 147 -25 27 -28 35 -19 52 17 32 13 87 -9 115
-11 14 -20 40 -20 60 0 52 -51 87 -97 65z m73 -33 c12 -19 14 -31 7 -47 -8
-18 -5 -26 13 -42 32 -31 37 -66 14 -112 -15 -29 -17 -40 -8 -43 21 -7 70 -64
84 -98 8 -18 14 -46 14 -63 l0 -30 -171 0 -171 0 7 38 c10 57 34 100 75 135
l38 32 -19 24 c-27 33 -25 84 5 112 19 18 23 30 19 54 -10 61 60 90 93 40z"/>
</g>
</svg>
