<?xml version="1.0" standalone="no"?>
<!DOCTYPE svg PUBLIC "-//W3C//DTD SVG 20010904//EN"
 "http://www.w3.org/TR/2001/REC-SVG-20010904/DTD/svg10.dtd">
<svg version="1.0" xmlns="http://www.w3.org/2000/svg"
 width="59.000000pt" height="55.000000pt" viewBox="0 0 59.000000 55.000000"
 preserveAspectRatio="xMidYMid meet">
<metadata>
Created by potrace 1.16, written by Peter Selinger 2001-2019
</metadata>
<g transform="translate(0.000000,55.000000) scale(0.100000,-0.100000)"
fill="#000000" stroke="none">
<path d="M260 531 c-13 -25 -13 -27 6 -46 15 -15 15 -23 -1 -105 -10 -50 -20
-90 -24 -90 -3 0 -20 37 -37 83 -28 73 -30 84 -17 99 31 35 -19 85 -52 51 -19
-18 -19 -32 0 -53 12 -14 15 -37 13 -106 l-3 -89 -40 64 c-23 37 -40 77 -40
94 0 33 -23 54 -49 44 -24 -10 -20 -54 8 -72 19 -13 25 -30 36 -105 9 -64 20
-99 36 -122 28 -38 29 -54 8 -97 -21 -43 -14 -57 37 -65 60 -10 278 -8 314 2
27 8 30 13 27 43 -1 18 -7 38 -12 43 -16 16 -12 35 14 69 17 22 29 60 40 122
9 50 16 93 16 96 0 3 12 11 26 17 29 14 30 48 2 66 -28 17 -53 -5 -53 -45 0
-33 -60 -149 -77 -149 -5 0 -8 38 -8 85 0 67 3 87 15 91 19 8 19 48 0 64 -32
27 -67 -14 -46 -54 10 -18 8 -32 -9 -77 -12 -29 -26 -65 -31 -78 -5 -13 -12
-21 -16 -18 -3 3 -14 46 -23 94 -16 75 -16 89 -4 96 17 10 18 39 2 55 -18 18
-46 14 -58 -7z m225 -313 c4 -3 1 -14 -5 -25 -11 -16 -27 -18 -186 -17 -124 1
-178 5 -189 14 -24 20 -18 28 23 33 53 7 350 2 357 -5z m-30 -128 c8 -7 15
-23 15 -35 0 -22 -5 -24 -85 -30 -47 -4 -128 -4 -180 0 -90 7 -95 8 -95 30 0
46 32 54 207 51 81 -2 127 -7 138 -16z"/>
</g>
</svg>
