<?xml version="1.0" standalone="no"?>
<!DOCTYPE svg PUBLIC "-//W3C//DTD SVG 20010904//EN"
 "http://www.w3.org/TR/2001/REC-SVG-20010904/DTD/svg10.dtd">
<svg version="1.0" xmlns="http://www.w3.org/2000/svg"
 width="54.000000pt" height="54.000000pt" viewBox="0 0 54.000000 54.000000"
 preserveAspectRatio="xMidYMid meet">
<metadata>
Created by potrace 1.16, written by Peter Selinger 2001-2019
</metadata>
<g transform="translate(0.000000,54.000000) scale(0.100000,-0.100000)"
fill="#000000" stroke="none">
<path d="M260 526 c0 -8 -8 -17 -17 -19 -17 -4 -17 -5 0 -6 24 -1 22 -40 -4
-68 -12 -12 -22 -36 -23 -53 -1 -16 -1 -30 -1 -30 -1 0 -18 9 -40 20 -58 30
-101 26 -135 -10 -54 -57 -47 -117 20 -173 27 -23 30 -31 30 -86 l0 -59 47
-19 c65 -24 191 -24 256 0 l47 19 0 55 c0 53 2 56 48 98 43 39 47 46 47 90 0
39 -5 51 -28 71 -39 34 -72 39 -128 21 l-49 -15 0 24 c0 14 -11 35 -25 48 -32
30 -33 63 -2 69 l22 4 -22 2 c-13 0 -23 8 -23 16 0 8 -4 15 -10 15 -5 0 -10
-6 -10 -14z m-80 -176 c50 -25 80 -68 80 -114 0 -34 -2 -36 -33 -36 -19 0 -54
-6 -79 -14 -43 -13 -47 -12 -75 10 -57 44 -66 111 -23 154 26 26 79 26 130 0z
m314 -5 c35 -33 35 -82 0 -124 -40 -48 -57 -54 -109 -36 -25 8 -59 15 -75 15
-27 0 -30 3 -30 33 0 103 142 179 214 112z"/>
</g>
</svg>
