<?xml version="1.0" standalone="no"?>
<!DOCTYPE svg PUBLIC "-//W3C//DTD SVG 20010904//EN"
 "http://www.w3.org/TR/2001/REC-SVG-20010904/DTD/svg10.dtd">
<svg version="1.0" xmlns="http://www.w3.org/2000/svg"
 width="44.000000pt" height="49.000000pt" viewBox="0 0 44.000000 49.000000"
 preserveAspectRatio="xMidYMid meet">
<metadata>
Created by potrace 1.16, written by Peter Selinger 2001-2019
</metadata>
<g transform="translate(0.000000,49.000000) scale(0.100000,-0.100000)"
fill="#000000" stroke="none">
<path d="M37 483 c-4 -3 -7 -24 -7 -46 0 -30 6 -44 25 -59 24 -19 25 -24 25
-123 0 -79 -4 -107 -15 -119 -8 -8 -15 -28 -15 -45 0 -26 -4 -31 -25 -31 -21
0 -25 -5 -25 -30 l0 -30 220 0 220 0 0 30 c0 23 -4 30 -20 30 -15 0 -20 7 -20
26 0 14 -9 37 -20 51 -17 22 -20 41 -20 118 0 85 2 93 25 115 20 19 25 33 25
72 l0 48 -35 0 c-22 0 -38 -6 -41 -15 -4 -9 -19 -15 -35 -15 -19 0 -29 5 -29
15 0 11 -12 15 -45 15 -33 0 -45 -4 -45 -15 0 -10 -11 -15 -35 -15 -24 0 -35
5 -35 15 0 10 -10 15 -33 15 -19 0 -37 -3 -40 -7z m329 -115 c-12 -16 -16 -47
-16 -110 l0 -88 -125 0 -125 0 0 88 c0 63 -4 94 -16 110 l-15 22 156 0 156 0
-15 -22z m14 -283 l0 -25 -155 0 -155 0 0 25 0 25 155 0 155 0 0 -25z"/>
</g>
</svg>
