<?xml version="1.0" encoding="UTF-8"?>
<svg width="40px" height="40px" viewBox="0 0 40 40" version="1.1" xmlns="http://www.w3.org/2000/svg" xmlns:xlink="http://www.w3.org/1999/xlink">
    <title>7099CF17-9742-4761-A053-B50695DE4BD0</title>
    <g id="Page-1" stroke="none" stroke-width="1" fill="none" fill-rule="evenodd">
        <g id="Tablet-/-768-x-1024px-/-About-me" transform="translate(-548.000000, -562.000000)">
            <g id="BG-Screen" fill="#F2F2F2">
                <rect id="BG" x="0" y="0" width="768" height="1586"></rect>
            </g>
            <g id="Contact" transform="translate(261.000000, 562.000000)" fill="#161616">
                <g id="Icon-/-Facebook" transform="translate(287.000000, 0.000000)">
                    <path d="M19.9592857,0.0830952381 C8.93619048,0.0830952381 0,9.01928571 0,20.042381 C0,29.9288095 7.19571429,38.1164286 16.6304762,39.7019048 L16.6304762,24.2064286 L11.8157143,24.2064286 L11.8157143,18.6302381 L16.6304762,18.6302381 L16.6304762,14.5185714 C16.6304762,9.74785714 19.5442857,7.14809524 23.8007143,7.14809524 C25.8392857,7.14809524 27.5911905,7.3 28.0997619,7.36690476 L28.0997619,12.3535714 L25.147619,12.355 C22.8333333,12.355 22.3871429,13.4545238 22.3871429,15.0685714 L22.3871429,18.627381 L27.9092857,18.627381 L27.1890476,24.2035714 L22.3871429,24.2035714 L22.3871429,39.8352381 C32.262381,38.6333333 39.9183333,30.2371429 39.9183333,20.0366667 C39.9183333,9.01928571 30.9821429,0.0830952381 19.9592857,0.0830952381 Z" id="Facebook"></path>
                </g>
            </g>
        </g>
    </g>
</svg>