<?xml version="1.0" encoding="UTF-8"?>
<svg width="40px" height="40px" viewBox="0 0 40 40" version="1.1" xmlns="http://www.w3.org/2000/svg" xmlns:xlink="http://www.w3.org/1999/xlink">
    <title>FC9C2139-1D64-4F40-ABFE-E550607DDB05</title>
    <g id="Page-1" stroke="none" stroke-width="1" fill="none" fill-rule="evenodd">
        <g id="Tablet-/-768-x-1024px-/-About-me" transform="translate(-608.000000, -562.000000)">
            <g id="BG-Screen" fill="#F2F2F2">
                <rect id="BG" x="0" y="0" width="768" height="1586"></rect>
            </g>
            <g id="Contact" transform="translate(261.000000, 562.000000)" fill="#161616">
                <g id="Icon-Social" transform="translate(287.000000, 0.000000)">
                    <g id="Icon-Github" transform="translate(60.000000, 0.000000)">
                        <path d="M20.0001656,3.01980663e-13 C8.95582695,3.01980663e-13 -2.96059473e-15,9.02777647 -2.96059473e-15,20.1645719 C-2.96059473e-15,29.0738079 5.73065618,36.6323501 13.6773339,39.2986763 C14.6768785,39.4853359 15.0438419,38.8612452 15.0438419,38.3286478 C15.0438419,37.8478075 15.025295,36.259365 15.0166839,34.5744205 C9.45261851,35.7942188 8.27853446,32.1952628 8.27853446,32.1952628 C7.36874353,29.864523 6.05787622,29.2447733 6.05787622,29.2447733 C4.24326226,27.9932529 6.19465949,28.0189645 6.19465949,28.0189645 C8.20302215,28.1612131 9.26052577,30.0969292 9.26052577,30.0969292 C11.0443386,33.1796497 13.9393086,32.2884256 15.0806044,31.7731918 C15.2601118,30.4699143 15.778431,29.5803598 16.3504036,29.0768131 C11.9080936,28.5669221 7.23825295,26.8379005 7.23825295,19.1113981 C7.23825295,16.9098842 8.01954047,15.111074 9.29894432,13.6989396 C9.09128545,13.191052 8.40670669,11.1401346 9.49269302,8.36261407 C9.49269302,8.36261407 11.1721797,7.82066699 14.9941627,10.4295595 C16.589526,9.98277872 18.3004761,9.7587205 20.0001656,9.75104041 C21.6998551,9.7587205 23.41213,9.98277872 25.010474,10.4295595 C28.8278203,7.82066699 30.5049886,8.36261407 30.5049886,8.36261407 C31.5936245,11.1401346 30.9087146,13.191052 30.7010557,13.6989396 C31.9834403,15.111074 32.7594287,16.9098842 32.7594287,19.1113981 C32.7594287,26.8562659 28.0806458,28.5615794 23.6270751,29.0607851 C24.3444421,29.6865453 24.9836473,30.9136898 24.9836473,32.7949775 C24.9836473,35.4930258 24.9604637,37.6644872 24.9604637,38.3286478 C24.9604637,38.8652522 25.320472,39.4940177 26.3342579,39.296005 C34.2766301,36.6266735 40,29.0708026 40,20.1645719 C40,9.02777647 31.0454978,3.01980663e-13 20.0001656,3.01980663e-13" id="Path"></path>
                        <path d="M7.63404959,28.8135556 C7.59008264,28.9127428 7.43404959,28.942499 7.29190083,28.8743904 C7.14710744,28.8092575 7.06578512,28.6740322 7.11272727,28.5745144 C7.15570248,28.4723516 7.31206612,28.4439179 7.45652893,28.5123571 C7.60165289,28.57749 7.68429752,28.7140377 7.63404959,28.8135556" id="Path"></path>
                        <path d="M8.44264463,29.715498 C8.34743802,29.8037746 8.16132231,29.7627772 8.03504132,29.6232539 C7.90446281,29.4840612 7.88,29.2979198 7.97652893,29.2083207 C8.07471074,29.1200441 8.25520661,29.1613721 8.3861157,29.3005648 C8.51669421,29.4414107 8.54214876,29.6262295 8.44264463,29.715498" id="Path"></path>
                        <path d="M9.22975207,30.8654085 C9.10743802,30.9503788 8.90743802,30.8706984 8.78380165,30.6931533 C8.6614876,30.5156082 8.6614876,30.3026863 8.78644628,30.2173853 C8.91041322,30.1320843 9.10743802,30.2087891 9.23272727,30.3850117 C9.35471074,30.5655324 9.35471074,30.7784543 9.22975207,30.8654085" id="Path"></path>
                        <path d="M10.3080992,31.9763053 C10.1986777,32.0969831 9.96561983,32.0645819 9.79504132,31.8999311 C9.62049587,31.7389172 9.57190083,31.510456 9.68165289,31.3897782 C9.79239669,31.2687698 10.0267769,31.3028241 10.1986777,31.4661524 C10.3719008,31.6268357 10.4247934,31.85695 10.3080992,31.9763053" id="Path"></path>
                        <path d="M11.7957025,32.6213528 C11.747438,32.777738 11.5229752,32.8488222 11.2968595,32.7823667 C11.0710744,32.7139275 10.9233058,32.5307618 10.9689256,32.3727235 C11.0158678,32.2153465 11.2413223,32.1412867 11.4690909,32.2123708 C11.6945455,32.2804794 11.8426446,32.4623226 11.7957025,32.6213528" id="Path"></path>
                        <path d="M13.4294215,32.7410387 C13.4350413,32.9056895 13.2433058,33.0422372 13.0059504,33.0452128 C12.7672727,33.0505028 12.5742149,32.9172613 12.5715702,32.7552555 C12.5715702,32.5889516 12.7590083,32.4537264 12.997686,32.4497589 C13.2350413,32.4451302 13.4294215,32.5773798 13.4294215,32.7410387" id="Path"></path>
                        <path d="M14.9497521,32.4821601 C14.9781818,32.6428434 14.8132231,32.8078248 14.5775207,32.8517978 C14.3457851,32.8941176 14.1312397,32.7949304 14.1018182,32.6355696 C14.0730579,32.4709189 14.2409917,32.3059375 14.4723967,32.263287 C14.7084298,32.2222896 14.9196694,32.3188318 14.9497521,32.4821601" id="Path"></path>
                    </g>
                </g>
            </g>
        </g>
    </g>
</svg>