<?xml version="1.0" encoding="UTF-8"?>
<svg width="40px" height="40px" viewBox="0 0 40 40" version="1.1" xmlns="http://www.w3.org/2000/svg" xmlns:xlink="http://www.w3.org/1999/xlink">
    <title>35D88879-229E-4570-BE88-225E8851B48C</title>
    <g id="Page-1" stroke="none" stroke-width="1" fill="none" fill-rule="evenodd">
        <g id="Tablet-/-768-x-1024px-/-About-me" transform="translate(-668.000000, -562.000000)">
            <g id="BG-Screen" fill="#F2F2F2">
                <rect id="BG" x="0" y="0" width="768" height="1586"></rect>
            </g>
            <g id="Contact" transform="translate(261.000000, 562.000000)" fill="#161616">
                <g id="Icon-Social" transform="translate(287.000000, 0.000000)">
                    <g id="Icon-/-Linkedin" transform="translate(120.000000, 0.000000)">
                        <path d="M20,0 C8.97217391,0 0,8.97130435 0,20 C0,31.0286957 8.97217391,40 20,40 C31.0278261,40 40,31.0286957 40,20 C40,8.97130435 31.0278261,0 20,0 Z M13.9130435,28.6956522 L10.4347826,28.6956522 L10.4347826,15.6521739 L13.9130435,15.6521739 L13.9130435,28.6956522 Z M12.173913,13.0434783 C11.5434716,13.0577349 10.9547058,12.7296067 10.635207,12.1859338 C10.3157082,11.642261 10.3155396,10.9682334 10.6347665,10.4244008 C10.9539934,9.88056824 11.542595,9.55214567 12.1730435,9.56608696 C13.1181564,9.58698651 13.873489,10.3590135 13.8737254,11.3043574 C13.8739618,12.2497014 13.1190154,13.022106 12.173913,13.0434783 Z M30.4347826,28.6956522 L26.9565217,28.6956522 L26.9565217,22.173913 C26.9565217,20.5 25.5869565,19.1304348 23.9130435,19.1304348 C22.2391304,19.1304348 20.8695652,20.5 20.8695652,22.173913 L20.8695652,28.6956522 L17.3913043,28.6956522 L17.3913043,15.6521733 L20.8695652,15.6521733 L20.8695652,17.2313043 C21.9199476,16.2176633 23.3228927,15.651497 24.7826087,15.6521733 C27.9042182,15.6521733 30.4347826,18.1827384 30.4347826,21.3043478 L30.4347826,28.6956522 L30.4347826,28.6956522 Z" id="Linkedin"></path>
                    </g>
                </g>
            </g>
        </g>
    </g>
</svg>