<?xml version="1.0" encoding="UTF-8"?>
<svg width="560px" height="240px" viewBox="0 0 560 240" version="1.1" xmlns="http://www.w3.org/2000/svg" xmlns:xlink="http://www.w3.org/1999/xlink">
    <title>DF57E0B0-6D17-457F-8D1E-4734425F6912</title>
    <defs>
        <path d="M104.92521,130.265802 L112.581986,152.783795 C116.72477,164.961252 120.423337,174.697734 120.905528,174.697734 C120.913429,174.697451 120.920959,174.694309 120.926723,174.68889 C121.456604,174.220152 136.443397,130.634602 136.443397,130.634602 L165.48969,130.634602 L130.446913,232.889334 L110.258459,232.889334 C110.258459,232.889334 88.7099771,170.563112 88.7982905,170.326974 L66.3048549,232.104862 L46.3195212,232.104862 L11.7183116,130.265802 L40.6233037,130.284375 C40.6233037,130.284375 56.4570221,175.23015 56.6680912,175.23015 L56.6698575,175.228381 L72.4691337,130.264034 L104.92521,130.265802 M1.85016677,123.183438 L5.03033409,132.544046 L39.6315437,234.383105 L41.2609268,239.180151 L71.2495249,239.180151 L72.9433769,234.528148 L88.5616105,191.634208 C89.9075074,195.555687 91.3620299,199.782287 92.8165525,204.004466 C96.3997936,214.405873 99.9885583,224.80537 103.582845,235.202954 L105.229008,239.964624 L135.492261,239.964624 L137.129592,235.187035 L172.172369,132.933186 L175.384329,123.559313 L131.404231,123.559313 L129.763367,128.331595 C126.752403,137.08711 123.721478,145.835728 120.670614,154.57738 C120.19899,153.219872 119.731809,151.86082 119.26908,150.500245 L111.613187,127.983137 L109.982921,123.188744 L67.4661767,123.188744 L65.8050007,127.916806 L56.5735959,154.189124 C53.4674032,145.439839 50.3717202,136.686815 47.2865535,127.930073 L45.6244944,123.212623 L40.6286025,123.209086 L11.7236104,123.190513 L1.85016677,123.183438 L1.85016677,123.183438 Z M552.267274,129.869586 L552.201922,156.671666 C552.201922,156.671666 523.373763,156.57615 508.718146,156.57615 C503.84236,156.57615 500.533256,156.588531 500.376941,156.615948 C497.853825,157.076726 496.243871,162.455715 496.960093,164.815324 C497.311581,166.010163 499.956569,169.909532 502.816158,173.492282 C505.667799,177.075916 510.35901,182.939562 513.218599,186.518773 C520.564512,195.699846 521.572169,197.512004 522.253065,202.783979 C523.356983,211.347732 519.313994,220.613708 511.807351,226.724989 C504.282161,232.853958 504.613337,232.897294 448.766561,232.897294 L446.314096,232.897294 C412.34786,232.887566 394.384905,232.606323 391.769943,232.023496 C387.124656,230.971047 379.72134,224.921674 360.161677,206.127937 C353.125744,199.374574 346.640004,193.461401 346.307063,193.459632 C346.298231,193.459632 346.294699,193.465823 346.294699,193.475552 L346.063318,232.900832 L314.360555,232.761095 L314.1645,131.071501 L384.870014,131.071501 C406.179166,131.841823 420.600752,153.102183 417.730565,166.660206 C417.080578,169.737072 415.419402,174.196273 414.039063,176.56561 C411.203318,181.429872 403.988109,187.673814 398.132044,190.354465 C395.969248,191.333508 394.202979,192.474398 394.202979,192.881227 C394.202979,194.39357 401.321926,201.414026 403.988109,202.529268 C406.266596,203.483548 412.898936,203.695807 442.149234,203.695807 L451.516642,203.697576 C480.918838,203.697576 479.438705,203.485317 481.710127,198.620171 C483.300652,195.233761 482.091641,193.208459 470.902327,180.587028 C456.727135,166.462097 458.210801,159.696352 458.114539,154.699429 C457.912302,148.711081 462.620292,129.875777 487.091948,129.875777 L552.267274,129.869586 M362.332421,176.848622 C375.906199,176.848622 378.662461,176.638132 381.550311,175.381384 C391.300999,171.135326 391.822048,158.596145 382.469654,153.03143 C380.420782,151.810058 377.788158,151.609297 363.075137,151.528815 L346.049187,151.438605 C346.190489,151.570383 345.995316,175.821821 345.995316,175.821821 C345.995316,175.821821 350.259973,176.848622 362.332421,176.848622 M559.350013,122.794297 L487.091948,122.794297 C472.932653,122.794297 464.557889,128.389966 460.028292,133.08619 C452.654119,140.721311 450.921409,150.335745 451.053879,154.868352 C451.060944,155.245995 451.057412,155.633367 451.052113,156.037543 C450.988527,163.403804 452.069484,171.742916 465.765134,185.440676 C468.469291,188.492779 472.997122,193.610866 474.712169,196.154433 C470.969445,196.615211 461.482814,196.615211 451.515758,196.615211 L447.284661,196.615211 L442.150117,196.613442 C424.572208,196.613442 409.748796,196.562146 406.712579,195.962516 C406.286908,195.686579 405.691676,195.207229 405.03639,194.637668 C411.109706,190.893955 417.25014,185.086912 420.141522,180.123596 C421.895427,177.105101 423.831258,171.948984 424.643742,168.12479 C426.446219,159.612333 423.474472,149.343435 416.695531,140.647905 C408.785296,130.502825 397.278936,124.433111 385.127006,123.994443 L384.998951,123.989136 L307.086177,123.989136 L307.10119,131.080345 L307.297246,232.769054 L307.311376,239.799239 L314.331412,239.830193 L346.034174,239.96993 L353.086886,240 L353.13016,232.936208 L353.266163,209.318008 C353.912617,209.932674 354.582033,210.572988 355.270878,211.231874 C376.668344,231.785589 383.846461,237.481197 390.209445,238.921903 C391.958051,239.311044 394.849433,239.958433 446.308797,239.972583 L448.761262,239.972583 C476.623272,239.972583 490.606824,239.972583 498.924184,239.168654 C508.452323,238.246213 511.517682,236.082059 516.110865,232.334809 L516.26453,232.210107 C525.699939,224.526343 530.679052,212.903411 529.259854,201.874804 C528.333446,194.70223 526.43824,191.722649 518.731125,182.092296 L516.440274,179.226804 C513.736495,175.845514 511.034692,172.462641 508.334866,169.078186 C506.582727,166.881308 505.202388,164.931182 504.374891,163.653208 C505.464679,163.650554 506.882993,163.648786 508.718146,163.648786 C523.197136,163.648786 551.891942,163.743418 552.179844,163.745186 L559.251985,163.767297 L559.269648,156.684932 L559.336766,129.881084 L559.350013,122.794297 L559.350013,122.794297 Z M353.105432,169.515085 L353.138108,163.715116 C353.146939,161.946294 353.155771,160.173934 353.156654,158.550155 L363.037163,158.602336 C368.715717,158.632406 377.259161,158.680164 378.924752,159.153324 C381.049574,160.445448 382.236507,162.444218 382.107569,164.51374 C382.036918,165.631635 381.505271,167.687007 378.732229,168.891575 C377.186744,169.564612 374.723681,169.773333 362.334188,169.773333 C358.402473,169.773333 355.370672,169.659244 353.105432,169.515085 Z M249.927063,129.452144 L285.509435,231.973084 L256.515246,232.104862 L251.702163,216.707264 L199.862168,216.290706 L195.287531,231.706877 L166.58566,231.405292 L201.71675,129.49548 L249.927063,129.452144 M226.611429,144.482712 C226.538129,144.777221 222.068585,157.059038 217.584028,169.338203 C213.062379,181.719959 208.525717,194.101715 208.463015,194.197231 L208.463015,194.197231 C208.583121,194.161855 224.638506,194.126478 234.928789,194.126478 C239.744522,194.126478 243.296489,194.135322 243.362724,194.151242 L243.363607,194.155664 L243.363607,194.15301 L243.362724,194.151242 C243.182564,193.686041 226.663534,145.081458 226.611429,144.482712 L226.612312,144.477405 L226.611429,144.482712 M254.949448,122.371548 L249.921764,122.376855 L201.711452,122.42196 L196.681117,122.427266 L195.03937,127.190705 L159.90828,229.100517 L156.708684,238.380643 L166.513243,238.48235 L195.215114,238.783935 L200.543065,238.839653 L202.061173,233.725987 L205.122117,223.411985 L246.500501,223.743639 L249.775163,234.223026 L251.333896,239.210221 L256.550571,239.187226 L285.543877,239.055449 L295.429684,239.008575 L292.182399,229.657696 L256.600027,127.136756 L254.949448,122.371548 L254.949448,122.371548 Z M218.632309,187.060918 C219.970257,183.408299 221.772735,178.473285 224.2199,171.770333 L226.333241,165.981862 L228.24876,171.638556 C228.819265,173.324244 231.326484,180.722343 233.476916,187.052958 C227.083023,187.052958 222.26994,187.053842 218.632309,187.060918 L218.632309,187.060918 Z M261.920029,7.08590212 L261.920029,32.380061 L211.334085,32.380061 L211.334085,109.741273 L181.175042,109.741273 L181.175042,32.3190366 L122.12867,32.4861903 C115.010605,32.4861903 114.05682,38.1641099 114.05682,40.3397613 C114.05682,43.0115674 115.796595,45.6816046 125.35211,57.7980373 C131.551715,65.6684122 137.247932,73.5228676 137.998596,75.2386252 C142.096341,84.6850207 136.797534,99.4007377 127.144873,105.379357 C120.265256,109.636028 121.440708,109.741273 70.3522603,109.741273 L7.06507597,109.741273 L7.06507597,81.3242583 L93.5239432,81.3242583 L96.0762019,79.5465919 C97.7983142,78.3446771 98.7962561,76.6908283 99.176004,74.4258513 C99.7058847,71.1712183 99.432113,70.746701 88.7550169,58.7019055 C76.135025,44.4620016 74.8014919,41.8627173 75.4550114,32.7718551 C76.1968444,22.3977123 85.4344312,7.32646195 101.57813,7.32646195 L261.920029,7.08590212 M268.985105,0 L261.908548,0.0114973449 L101.566649,0.250288355 C92.3308285,0.250288355 83.7529431,4.24782674 77.4199856,11.5026514 C72.2854417,17.3848699 68.9154004,25.1491154 68.406715,32.2668563 C67.5474251,44.2161353 70.2939734,48.534715 83.469457,63.3998976 C87.2934293,67.7131707 90.929294,71.815954 92.1427208,73.5573596 C92.1299005,73.6052238 92.1139701,73.6521977 92.0950316,73.697981 C92.0817846,73.7094783 92.0614725,73.7236289 92.0332122,73.7439703 L91.3072756,74.2489691 L0,74.2489691 L0,116.816562 L70.3522603,116.816562 C95.5410224,116.816562 107.97379,116.793567 115.298507,116.254077 C123.679454,115.640295 126.353585,114.200474 130.359483,111.708203 L130.859337,111.396891 C143.454601,103.596384 149.94564,85.0175592 144.479037,72.418238 C142.79225,68.5639742 132.112505,54.9546555 130.899961,53.4157801 C127.547583,49.1635313 122.013862,42.1483821 121.137793,40.1177741 C121.158988,39.9479671 121.200495,39.7702005 121.244652,39.6481518 C121.390369,39.6110065 121.66944,39.5605951 122.12867,39.5605951 L174.109966,39.4128984 L174.109966,116.814793 L218.399161,116.814793 L218.399161,39.4544657 L268.985105,39.4544657 L268.985105,0 Z M344.104525,7.90752007 L379.588869,110.693784 L350.648552,110.53459 L345.950276,95.1369916 L294.34078,94.9070447 L289.729934,109.739504 L260.260619,109.739504 L295.355501,7.90752007 L344.104525,7.90752007 M302.764116,73.0187532 L337.914636,72.9745326 L337.914636,72.9754171 C338.035625,72.9754171 320.833048,22.386215 320.718241,22.3508385 C320.592836,22.3464165 302.368472,73.0187532 302.764116,73.0187532 M349.138392,0.83223089 L290.322518,0.83223089 L288.680771,5.60009139 L253.584123,107.43296 L250.350084,116.815678 L294.935129,116.815678 L296.480614,111.842634 L299.537143,102.007097 L340.720354,102.190171 L343.898755,112.602343 L345.419513,117.580693 L350.618525,117.609879 L379.559726,117.769957 L389.536496,117.824791 L386.276847,108.382817 L350.792503,5.59478492 L349.138392,0.83223089 Z M312.579273,65.9319667 C315.208341,58.4611956 317.86188,50.9990837 320.539848,43.5457517 C323.078018,50.997916 325.60614,58.4535087 328.124207,65.9125096 L312.579273,65.9319667 L312.579273,65.9319667 Z M443.764487,7.90752007 C466.657099,7.90752007 482.542923,8.2347522 485.599451,8.76539889 C492.664527,9.99649921 499.048706,13.771166 503.834412,19.5746719 C508.841785,25.6399636 509.990743,28.542601 510.644262,36.8551814 C511.581268,48.5922017 506.007806,58.7187093 495.011899,65.2881154 C491.807004,67.2072875 488.514678,69.0733951 487.691597,69.4448478 C486.428714,70.0188306 486.598276,70.5689343 488.857334,73.2221678 C490.31274,74.9299657 492.840271,77.3620963 494.465238,78.6250355 L497.431687,80.9333486 L552.256677,81.7204745 L552.794506,109.739504 L519.18064,109.739504 C493.182927,109.739504 484.864683,109.499829 482.4237,108.679095 C478.777237,107.440919 470.00153,99.9941776 452.15868,82.9957954 L439.423881,70.86079 L439.558117,109.739504 L406.8424,109.739504 L406.8424,7.90752007 L443.764487,7.90752007 M438.945222,53.6934852 L456.316478,53.6934852 C473.220555,53.6934852 473.749553,53.6395361 476.161393,51.8282621 C480.471972,48.5913173 481.998029,45.2562029 481.539682,40.1354623 C481.07427,34.8546433 479.040411,32.1058935 473.944725,29.8948656 C471.074538,28.6381174 468.309444,28.4355872 454.762161,28.4355872 L438.945222,28.4355872 L438.945222,53.6934852 M443.764487,0.83223089 L399.785272,0.83223089 L399.785272,116.814793 L446.65322,116.814793 L446.629375,109.715625 L446.549893,87.413429 L447.293492,88.120958 C469.357725,109.144295 475.867309,113.921884 480.161109,115.37851 C483.456967,116.492868 488.976558,116.814793 519.185056,116.814793 L560,116.814793 L559.862231,109.604189 L559.324402,81.5851596 L559.195464,74.7460082 L552.365302,74.6478385 L499.905347,73.8952046 L498.806728,73.0390947 C498.457006,72.7649272 498.032219,72.4040875 497.580054,71.9954895 L498.645997,71.3613667 C511.894781,63.4432337 518.838867,50.659955 517.693442,36.2918115 C516.931297,26.5995497 515.203003,22.2332118 509.285118,15.0659439 C503.470561,8.01807147 495.489674,3.30504446 486.811995,1.79535463 C481.987431,0.957817273 457.771883,0.83223089 443.764487,0.83223089 L443.764487,0.83223089 Z M446.010298,35.509992 L454.762161,35.509992 C467.148122,35.509992 469.603236,35.7160598 471.116045,36.3775993 C473.986233,37.6219658 474.277667,38.2269031 474.501983,40.760741 C474.728066,43.2804283 474.417202,44.2930791 471.921464,46.1653775 L471.724525,46.3121898 C470.077479,46.618196 463.966189,46.618196 456.316478,46.618196 L446.010298,46.618196 L446.010298,35.509992 L446.010298,35.509992 Z" id="path-1"></path>
        <filter x="-5.3%" y="-15.6%" width="112.0%" height="127.9%" filterUnits="objectBoundingBox" id="filter-2">
            <feOffset dx="1" dy="1" in="SourceAlpha" result="shadowOffsetOuter1"></feOffset>
            <feGaussianBlur stdDeviation="1.5" in="shadowOffsetOuter1" result="shadowBlurOuter1"></feGaussianBlur>
            <feColorMatrix values="0 0 0 0 0   0 0 0 0 0   0 0 0 0 0  0 0 0 0.5 0" type="matrix" in="shadowBlurOuter1" result="shadowMatrixOuter1"></feColorMatrix>
            <feOffset dx="4" dy="-4" in="SourceAlpha" result="shadowOffsetOuter2"></feOffset>
            <feGaussianBlur stdDeviation="10.5" in="shadowOffsetOuter2" result="shadowBlurOuter2"></feGaussianBlur>
            <feColorMatrix values="0 0 0 0 1   0 0 0 0 0.772840917   0 0 0 0 0.0019013572  0 0 0 0.5 0" type="matrix" in="shadowBlurOuter2" result="shadowMatrixOuter2"></feColorMatrix>
            <feMerge>
                <feMergeNode in="shadowMatrixOuter1"></feMergeNode>
                <feMergeNode in="shadowMatrixOuter2"></feMergeNode>
            </feMerge>
        </filter>
    </defs>
    <g id="Page-1" stroke="none" stroke-width="1" fill="none" fill-rule="evenodd">
        <g id="Tablet-/-768-x-1024px-/-Login" transform="translate(-104.000000, -380.000000)">
            <g id="Star-Wars" transform="translate(104.000000, 380.000000)">
                <use fill="black" fill-opacity="1" filter="url(#filter-2)" xlink:href="#path-1"></use>
                <use fill="#FFC500" fill-rule="evenodd" xlink:href="#path-1"></use>
            </g>
        </g>
    </g>
</svg>